<?xml version="1.0" encoding="utf-8"?>
<!-- Generator: Adobe Illustrator 27.2.0, SVG Export Plug-In . SVG Version: 6.00 Build 0)  -->
<svg version="1.1" id="Layer_1" xmlns="http://www.w3.org/2000/svg" xmlns:xlink="http://www.w3.org/1999/xlink" x="0px" y="0px"
	 viewBox="0 0 50 50" style="enable-background:new 0 0 50 50;" xml:space="preserve">
<style type="text/css">
	.st0{clip-path:url(#SVGID_00000102519567951669467220000002702484019356887737_);}
	.st1{fill:none;stroke:#FB6C55;stroke-width:2;stroke-linecap:round;stroke-linejoin:round;}
</style>
<g>
	<defs>
		<rect id="SVGID_1_" width="50" height="50"/>
	</defs>
	<clipPath id="SVGID_00000073683508536244823790000015308835818601767097_">
		<use xlink:href="#SVGID_1_"  style="overflow:visible;"/>
	</clipPath>
	<g style="clip-path:url(#SVGID_00000073683508536244823790000015308835818601767097_);">
		<path class="st1" d="M25,11.6c3,0,5.4-2.4,5.4-5.4c0-3-2.4-5.4-5.4-5.4s-5.4,2.4-5.4,5.4C19.6,9.2,22,11.6,25,11.6z"/>
		<path class="st1" d="M39.3,25.9c0.5,0,0.9-0.4,0.9-0.9s-0.4-0.9-0.9-0.9c-0.5,0-0.9,0.4-0.9,0.9S38.8,25.9,39.3,25.9z"/>
		<path class="st1" d="M31.2,16.2c-2-0.7-4.1-1.1-6.2-1.1c-2.2,0-4.3,0.4-6.2,1"/>
		<path class="st1" d="M4.5,28.6c-2,0-3.6-1.6-3.6-3.6"/>
		<path class="st1" d="M48.2,27.7h-1.1c-0.9,0-1.6-0.6-1.8-1.5c-0.6-3.2-2.2-6.2-4.7-8.6c-0.2-0.2-0.3-0.6-0.2-0.9l1.2-4.6
			c0.2-0.7-0.4-1.3-1.1-1.1l-7,1.8c-0.3,0.1-0.7,0.1-1,0c-2.3-0.8-4.9-1.2-7.5-1.2c-11.3,0-20.5,7.6-20.5,17c0,3.6,1.4,6.9,3.7,9.6
			c1.1,1.3,1.7,2.9,1.7,4.6v5.4c0,0.5,0.4,0.9,0.9,0.9h5.4c0.5,0,0.9-0.4,0.9-0.9v-2.8c0-0.6,0.6-1,1.1-0.9c2.2,0.6,4.5,1,6.9,1
			c1.8,0,3.5-0.2,5.2-0.5c0.6-0.1,1.1,0.3,1.1,0.9v2.3c0,0.5,0.4,0.9,0.9,0.9h5.4c0.5,0,0.9-0.4,0.9-0.9v-3.6c0-2,1.1-3.8,2.8-4.7
			l6.9-3.7c0.6-0.3,0.9-0.9,0.9-1.6v-6.1C49.1,28.1,48.7,27.7,48.2,27.7z"/>
		<path class="st1" d="M13,38c-3.1-2.4-5-5.8-5-9.5"/>
	</g>
</g>
</svg>
