<?xml version="1.0" encoding="utf-8"?>
<!-- Generator: Adobe Illustrator 27.2.0, SVG Export Plug-In . SVG Version: 6.00 Build 0)  -->
<svg version="1.1" id="Layer_1" xmlns="http://www.w3.org/2000/svg" xmlns:xlink="http://www.w3.org/1999/xlink" x="0px" y="0px"
	 viewBox="0 0 40 44" style="enable-background:new 0 0 40 44;" xml:space="preserve">
<style type="text/css">
	.st0{clip-path:url(#SVGID_00000090265585495705318100000016586595041812813481_);}
	.st1{fill:none;stroke:#FB6C55;stroke-width:2;stroke-linecap:round;stroke-linejoin:round;}
	.st2{fill:none;stroke:#FB6C55;stroke-width:2;stroke-linejoin:round;}
</style>
<g>
	<defs>
		<rect id="SVGID_1_" width="40" height="43.3"/>
	</defs>
	<clipPath id="SVGID_00000161629033575054696260000006365817163600214699_">
		<use xlink:href="#SVGID_1_"  style="overflow:visible;"/>
	</clipPath>
	<g style="clip-path:url(#SVGID_00000161629033575054696260000006365817163600214699_);">
		<path class="st1" d="M0.8,17.5h5.8c1.4,0,2.5,1.1,2.5,2.5v19.2c0,1.8-1.5,3.3-3.3,3.3H4.2"/>
		<path class="st2" d="M3.3,37.5c0.5,0,0.8-0.4,0.8-0.8c0-0.5-0.4-0.8-0.8-0.8c-0.5,0-0.8,0.4-0.8,0.8C2.5,37.1,2.9,37.5,3.3,37.5z"
			/>
		<path class="st2" d="M9.2,38.3c0,2.3,1.9,4.2,4.2,4.2h12.5"/>
		<path class="st2" d="M25.8,42.5c-1.8,0-3.3-1.5-3.3-3.3c0-1.8,1.5-3.3,3.3-3.3h5c1.8,0,3.3,1.5,3.3,3.3c0,1.8-1.5,3.3-3.3,3.3
			H25.8z"/>
		<path class="st2" d="M26.7,35.8c-1.8,0-3.3-1.5-3.3-3.3c0-1.8,1.5-3.3,3.3-3.3h7.5c1.8,0,3.3,1.5,3.3,3.3c0,1.8-1.5,3.3-3.3,3.3
			h-3.3"/>
		<path class="st2" d="M27.5,29.2c-1.8,0-3.3-1.5-3.3-3.3c0-1.8,1.5-3.3,3.3-3.3h1.7"/>
		<path class="st2" d="M35.8,22.5c1.8,0,3.3,1.5,3.3,3.3c0,1.8-1.5,3.3-3.3,3.3h-1.7"/>
		<path class="st2" d="M29.2,15.8c-2,0-3.5,1.7-3.3,3.7c0.2,1.7,1.7,3,3.5,3h5.8c2.4,0,3.9-1.3,4.1-3c0.2-2-1.4-3.7-3.3-3.7H29.2z"
			/>
		<path class="st2" d="M29.2,15.8h-5.9c-0.7,0-1-0.7-0.7-1.3c1.8-3.1,2.1-7.1,0.9-10.4c-0.7-2-2.6-3.3-4.7-3.3
			c-0.7,0-1.3,0.5-1.3,1.2C16.9,12.1,9.2,20,9.2,20"/>
	</g>
</g>
</svg>
