<?xml version="1.0" encoding="utf-8"?>
<!-- Generator: Adobe Illustrator 27.2.0, SVG Export Plug-In . SVG Version: 6.00 Build 0)  -->
<svg version="1.1" id="Layer_1" xmlns="http://www.w3.org/2000/svg" xmlns:xlink="http://www.w3.org/1999/xlink" x="0px" y="0px"
	 viewBox="0 0 50 34" style="enable-background:new 0 0 50 34;" xml:space="preserve">
<style type="text/css">
	.st0{clip-path:url(#SVGID_00000043449944014368191710000007508321748112020410_);}
	.st1{fill:none;stroke:#FB6C55;stroke-width:2;stroke-linejoin:round;}
	.st2{fill:none;stroke:#FB6C55;stroke-width:2;stroke-linecap:round;stroke-linejoin:round;}
</style>
<g>
	<defs>
		<rect id="SVGID_1_" width="50" height="33.3"/>
	</defs>
	<clipPath id="SVGID_00000166667179295153480010000009628480372268267922_">
		<use xlink:href="#SVGID_1_"  style="overflow:visible;"/>
	</clipPath>
	<g style="clip-path:url(#SVGID_00000166667179295153480010000009628480372268267922_);">
		<path class="st1" d="M15,32.5c2.3,0,4.2-1.9,4.2-4.2s-1.9-4.2-4.2-4.2s-4.2,1.9-4.2,4.2S12.7,32.5,15,32.5z"/>
		<path class="st1" d="M40,32.5c2.3,0,4.2-1.9,4.2-4.2s-1.9-4.2-4.2-4.2s-4.2,1.9-4.2,4.2S37.7,32.5,40,32.5z"/>
		<path class="st2" d="M45.8,22.5h3.3"/>
		<path class="st2" d="M4.2,24.2v2.5c0,1.4,1.1,2.5,2.5,2.5h4.3"/>
		<path class="st2" d="M32.5,25.8V3.3c0-1.4-1.1-2.5-2.5-2.5H6.7C5.3,0.8,4.2,2,4.2,3.3v7.5"/>
		<path class="st1" d="M45.8,15.8l-4.3-8.6c-0.4-0.8-1.3-1.4-2.2-1.4h-6.8"/>
		<path class="st2" d="M44.1,29.2h3.4c0.9,0,1.7-0.8,1.7-1.7v-8.3c0-1.8-1.5-3.3-3.3-3.3h-10"/>
		<path class="st1" d="M19.1,29.2h16.8"/>
		<path class="st2" d="M0.8,14.2h7.5"/>
		<path class="st2" d="M3.3,17.5h5.8"/>
		<path class="st2" d="M5.8,20.8H10"/>
	</g>
</g>
</svg>
